<?xml version="1.0" encoding="utf-8"?>
<!-- Generator: Adobe Illustrator 16.0.0, SVG Export Plug-In . SVG Version: 6.00 Build 0)  -->
<!DOCTYPE svg PUBLIC "-//W3C//DTD SVG 1.1//EN" "http://www.w3.org/Graphics/SVG/1.1/DTD/svg11.dtd">
<svg version="1.1" id="Layer_1" xmlns="http://www.w3.org/2000/svg" xmlns:xlink="http://www.w3.org/1999/xlink" x="0px" y="0px"
	 width="250px" height="500px" viewBox="0 0 250 500" enable-background="new 0 0 250 500" xml:space="preserve">
<g>
	<path fill="#fff" d="M225.204,273.326c-12.193-17.324-27.767-27.962-50.299-27.025c-9.422,0.392-18.856,0.472-28.296,0.445v-40.329
		c0.028-27.512,0.166-55.024-0.07-82.534c-0.074-8.759-7.217-17.289-15.747-20.015c-8.941-2.856-15.919,0.688-21.852,7.141
		c-4.039,4.394-5.515,9.651-5.494,15.585c0.091,26.305,0.034,52.609,0.053,78.913v63.128c-0.017,35.758-0.042,71.517,0.04,107.275
		c0.021,9.212,6.958,17.895,16.009,20.819c7.641,2.469,16.26-0.618,22.116-7.872c3.613-4.478,5.052-9.567,5.035-15.306
		c-0.084-28.33-0.039-56.661-0.039-84.991c0-1.916,0-3.833,0-5.863c12.287,0,23.729,0,35.234,0c0.222,0.878,0.521,1.51,0.52,2.142
		c-0.062,31.827,0.596,63.679-0.457,95.474c-0.982,29.656-24.127,51.343-53.881,52.582C93.359,434.34,67.943,410.23,67.7,375.486
		c-0.123-17.498-0.149-34.998,0.065-52.493c0.05-4.057-1.269-5.223-5.13-4.992c-4.815,0.288-9.662,0.068-14.494,0.068
		c-12.473,0-24.945,0-38.174,0c0,19.054-0.333,37.371,0.126,55.669c0.271,10.784,0.911,21.704,2.917,32.272
		c7.616,40.109,30.867,66.859,70.293,78.388c27.472,8.034,55.371,7.949,82.884,0.163c31.24-8.841,53.613-28.126,65.379-58.852
		c5.48-14.312,7.936-29.257,8.139-44.504c0.269-20.161-0.087-40.33,0.172-60.49C240.102,303.261,235.164,287.478,225.204,273.326z"
		/>
	<path fill="#fff" d="M15.643,201.965c6.982,19.07,19.067,34.326,38.735,42.003c3.999,1.561,8.433,2.006,13.297,3.108c0-3.092,0-4.896,0-6.703
		c-0.001-38.989-0.071-77.979,0.022-116.969c0.061-25.358,13.744-43.965,37.475-52.869c30.741-11.535,75.579,6.665,77.011,49.893
		c0.523,15.812,0.202,31.651,0.264,47.479c0.008,2.107,0.001,4.215,0.001,6.574c19.304,0,37.903,0,56.533,0
		c0.423-0.586,0.6-0.717,0.599-0.848c-0.144-25.457,2.279-51.041-1.895-76.322c-7.047-42.697-31.111-70.793-73.2-82.686
		c-19.71-5.568-39.778-6-59.965-3.807c-54.128,5.879-90.57,43.734-93.543,97.998c-1.166,21.269-1.307,42.641-0.742,63.935
		C10.494,182.561,12.276,192.77,15.643,201.965z"/>
</g>
</svg>
